name GIL11_free1.mot
datacolumns 153
datarows 4
range 0.13333328 0.15833327
endheader

                time	           pelvis_tx	           pelvis_ty	           pelvis_tz	         pelvis_tilt	         pelvis_list	     pelvis_rotation	       hip_flexion_r	     hip_adduction_r	      hip_rotation_r	        knee_angle_r	       ankle_angle_r	    subtalar_angle_r	         mtp_angle_r	       hip_flexion_l	     hip_adduction_l	      hip_rotation_l	        knee_angle_l	       ankle_angle_l	    subtalar_angle_l	         mtp_angle_l	    lumbar_extension	      lumbar_bending	     lumbar_rotation	     ground_force_vx	     ground_force_vy	     ground_force_vz	     ground_force_px	     ground_force_py	     ground_force_pz	     ground_force_vx	     ground_force_vy	     ground_force_vz	     ground_force_px	     ground_force_py	     ground_force_pz	     ground_torque_x	     ground_torque_y	     ground_torque_z	     ground_torque_x	     ground_torque_y	     ground_torque_z	    ground_marker_px	    ground_marker_py	    ground_marker_pz	    ground_marker_px	    ground_marker_py	    ground_marker_pz	    ground_marker_px	    ground_marker_py	    ground_marker_pz	    ground_marker_px	    ground_marker_py	    ground_marker_pz	    ground_marker_px	    ground_marker_py	    ground_marker_pz	    ground_marker_px	    ground_marker_py	    ground_marker_pz	    ground_marker_px	    ground_marker_py	    ground_marker_pz	    ground_marker_px	    ground_marker_py	    ground_marker_pz	    ground_marker_px	    ground_marker_py	    ground_marker_pz	    ground_marker_px	    ground_marker_py	    ground_marker_pz	    ground_marker_px	    ground_marker_py	    ground_marker_pz	    ground_marker_px	    ground_marker_py	    ground_marker_pz	    ground_marker_px	    ground_marker_py	    ground_marker_pz	    ground_marker_px	    ground_marker_py	    ground_marker_pz	    ground_marker_px	    ground_marker_py	    ground_marker_pz	    ground_marker_px	    ground_marker_py	    ground_marker_pz	    ground_marker_px	    ground_marker_py	    ground_marker_pz	    ground_marker_px	    ground_marker_py	    ground_marker_pz	    ground_marker_px	    ground_marker_py	    ground_marker_pz	    ground_marker_px	    ground_marker_py	    ground_marker_pz	    ground_marker_px	    ground_marker_py	    ground_marker_pz	    ground_marker_px	    ground_marker_py	    ground_marker_pz	    ground_marker_px	    ground_marker_py	    ground_marker_pz	    ground_marker_px	    ground_marker_py	    ground_marker_pz	    ground_marker_px	    ground_marker_py	    ground_marker_pz	    ground_marker_px	    ground_marker_py	    ground_marker_pz	    ground_marker_px	    ground_marker_py	    ground_marker_pz	    ground_marker_px	    ground_marker_py	    ground_marker_pz	    ground_marker_px	    ground_marker_py	    ground_marker_pz	    ground_marker_px	    ground_marker_py	    ground_marker_pz	    ground_marker_px	    ground_marker_py	    ground_marker_pz	    ground_marker_px	    ground_marker_py	    ground_marker_pz	    ground_marker_px	    ground_marker_py	    ground_marker_pz	    ground_marker_px	    ground_marker_py	    ground_marker_pz	    ground_marker_px	    ground_marker_py	    ground_marker_pz	    ground_marker_px	    ground_marker_py	    ground_marker_pz	    ground_marker_px	    ground_marker_py	    ground_marker_pz	
          0.13333328	          0.63485891	          0.85790229	         -0.29999378	         -6.06397438	          6.33309221	          4.60470486	         -1.98250866	        -10.57001305	          0.93605798	        -43.30362320	        -22.80192757	          0.00000000	          0.00000000	         27.55550385	         10.09750271	         14.87300110	        -21.71318436	         -0.97657162	          0.00000000	          0.00000000	          2.16772819	        -10.33411121	          1.65541852	          0.00000000	          0.00000000	          0.00000000	          1.11448792	          0.00000000	         -0.25969681	       -102.34102926	        710.20593636	         45.36270925	          0.70152191	          0.00000000	         -0.36084741	          0.00000000	          0.00000000	          0.00000000	          0.00000000	          1.71185840	          0.00000000	          0.56052154	          0.80558276	         -0.30123445	          0.54817992	          0.77678657	         -0.23015894	          0.53676349	          0.79643577	         -0.38057962	          0.50020546	          0.40601012	         -0.20719713	          0.68217987	          0.43087751	         -0.36485615	          0.20961626	          0.16939203	         -0.20694757	          0.67838228	          0.06823970	         -0.35530481	          0.63485891	          0.85790229	         -0.29999378	          0.63974142	          0.84293836	         -0.18545280	          0.62997639	          0.87286621	         -0.41453478	          0.44399577	          0.91888857	         -0.25176126	          0.43699524	          0.91879678	         -0.30621612	          0.50502038	          0.40896195	         -0.14947274	          0.69729280	          0.43448579	         -0.42073616	          0.51572198	          0.40469533	         -0.26315963	          0.68259966	          0.44708949	         -0.30318871	          0.19943435	          0.18193495	         -0.17035519	          0.67328089	          0.06724851	         -0.39496580	          0.22400910	          0.16530053	         -0.23820505	          0.68888193	          0.07712521	         -0.32952288	          0.50261736	          1.35305560	         -0.28999215	          0.63194746	          1.30110395	         -0.24941280	          0.62329799	          1.29589438	         -0.35581750	          0.62452775	          1.29536343	         -0.30166462	          0.66811287	          1.22807097	         -0.30576313	          0.68839526	          0.52711558	         -0.23417936	          0.70058358	          0.57125646	         -0.51013839	          0.62989664	          0.58641160	         -0.17742491	          0.61897963	          0.59736127	         -0.46470392	          0.60859662	          0.50055617	         -0.17288288	          0.65508944	          0.51924169	         -0.44556341	          0.25401190	          0.24208321	         -0.09993854	          0.77025545	          0.19582140	         -0.33157092	          0.26197985	          0.24354511	         -0.14169963	          0.73051125	          0.19208992	         -0.34656742	          0.21394226	          0.06552914	         -0.18703778	          0.78988415	          0.04231334	         -0.37429398	
          0.14166661	          0.64431822	          0.85937023	         -0.30157366	         -5.95904922	          6.34251976	          4.80307007	         -0.63553429	        -10.74944401	          1.02753401	        -45.74833298	        -24.16060448	          0.00000000	          0.00000000	         26.73250961	         10.26006508	         14.32931042	        -21.73550224	         -0.31457412	          0.00000000	          0.00000000	          1.96109378	        -10.42273808	          1.31235850	          0.00000000	          0.00000000	          0.00000000	          1.11549573	          0.00000000	         -0.25990372	        -96.78234779	        703.81037221	         45.97915054	          0.70301001	          0.00000000	         -0.36132111	          0.00000000	          0.00000000	          0.00000000	          0.00000000	          1.50530127	          0.00000000	          0.57001519	          0.80683643	         -0.30245054	          0.55804437	          0.77797776	         -0.23155938	          0.54609978	          0.79778469	         -0.38191837	          0.51957184	          0.40563542	         -0.20822895	          0.68701428	          0.43094385	         -0.36604103	          0.22593327	          0.17469108	         -0.20906772	          0.67893618	          0.06820278	         -0.35532409	          0.64431822	          0.85937023	         -0.30157366	          0.64960271	          0.84427840	         -0.18707207	          0.63903373	          0.87446201	         -0.41607526	          0.45342007	          0.91971236	         -0.25223461	          0.44634920	          0.91989762	         -0.30663303	          0.52443153	          0.40874943	         -0.15051685	          0.70144755	          0.43406051	         -0.42212993	          0.53556454	          0.40385368	         -0.26568735	          0.68875867	          0.44606039	         -0.30553722	          0.21621588	          0.18691269	         -0.17224103	          0.67330682	          0.06715854	         -0.39491224	          0.24054857	          0.16998741	         -0.24018553	          0.68926913	          0.07703265	         -0.32949495	          0.51275188	          1.35453606	         -0.29161558	          0.64177680	          1.30271935	         -0.25092232	          0.63335407	          1.29743302	         -0.35736811	          0.63437152	          1.29683959	         -0.30297104	          0.67807609	          1.22965372	         -0.30715767	          0.70454127	          0.53049326	         -0.23563775	          0.70516276	          0.57044512	         -0.51223016	          0.64427090	          0.58849442	         -0.17916214	          0.62454182	          0.59793007	         -0.46515566	          0.62529236	          0.50214416	         -0.17480826	          0.65952992	          0.51933599	         -0.44708943	          0.27172115	          0.24473439	         -0.10143410	          0.77227044	          0.19471030	         -0.33328512	          0.28080299	          0.24655202	         -0.14320108	          0.73286426	          0.19193296	         -0.34784469	          0.22580358	          0.06992846	         -0.18853800	          0.78989047	          0.04228885	         -0.37457022	
          0.14999995	          0.65354687	          0.86083126	         -0.30296290	         -5.88129044	          6.26666355	          4.97304058	          0.76777935	        -10.80503082	          1.28132367	        -48.05934143	        -24.96222687	          0.00000000	          0.00000000	         25.91242981	         10.28838158	         13.76488876	        -21.63506508	          0.26542050	          0.00000000	          0.00000000	          1.75468171	        -10.53155231	          1.01398349	          0.00000000	          0.00000000	          0.00000000	          1.11656311	          0.00000000	         -0.26013567	        -90.36015887	        693.78827303	         46.23187589	          0.70483044	          0.00000000	         -0.36188391	          0.00000000	          0.00000000	          0.00000000	          0.00000000	          1.22749707	          0.00000000	          0.57906866	          0.80791616	         -0.30363405	          0.56763548	          0.77931869	         -0.23264332	          0.55517471	          0.79905206	         -0.38297006	          0.53882611	          0.40570277	         -0.20922591	          0.69139040	          0.43099639	         -0.36724463	          0.24286467	          0.17978765	         -0.21164176	          0.67963833	          0.06812786	         -0.35536927	          0.65354687	          0.86083126	         -0.30296290	          0.65922868	          0.84577811	         -0.18839082	          0.64786506	          0.87588441	         -0.41753501	          0.46267942	          0.92070657	         -0.25278506	          0.45554721	          0.92110938	         -0.30714637	          0.54386473	          0.40893015	         -0.15153539	          0.70506769	          0.43365276	         -0.42354625	          0.55631787	          0.40268931	         -0.26767978	          0.69583583	          0.44561636	         -0.30788139	          0.23356031	          0.19158044	         -0.17456941	          0.67327785	          0.06704194	         -0.39484540	          0.25759956	          0.17495923	         -0.24281758	          0.68961829	          0.07696214	         -0.32968259	          0.52242970	          1.35639918	         -0.29317194	          0.65175962	          1.30457640	         -0.25201926	          0.64345813	          1.29900265	         -0.35872212	          0.64421433	          1.29837930	         -0.30421564	          0.68813723	          1.23136771	         -0.30814967	          0.72044361	          0.53427690	         -0.23738287	          0.70919132	          0.56961548	         -0.51429927	          0.65884870	          0.59070092	         -0.18115781	          0.62981445	          0.59855491	         -0.46587440	          0.64287448	          0.50399089	         -0.17688189	          0.66434610	          0.51931792	         -0.44863921	          0.28986943	          0.24714363	         -0.10325170	          0.77424133	          0.19364972	         -0.33550227	          0.29955265	          0.24942352	         -0.14495824	          0.73591161	          0.19157889	         -0.34985477	          0.23938492	          0.07429272	         -0.19013220	          0.78979927	          0.04230608	         -0.37493032	
          0.15833327	          0.66257215	          0.86229229	         -0.30417639	         -5.83381081	          6.11794043	          5.10901880	          2.22809792	        -10.75602913	          1.68248010	        -50.22038269	        -25.20389748	          0.00000000	          0.00000000	         25.09672165	         10.19696522	         13.22883129	        -21.41176033	          0.74574637	          0.00000000	          0.00000000	          1.60237992	        -10.44696045	          0.93029618	          0.00000000	          0.00000000	          0.00000000	          1.11771851	          0.00000000	         -0.26038766	        -83.60933655	        681.28355590	         45.99001324	          0.70678900	          0.00000000	         -0.36247675	          0.00000000	          0.00000000	          0.00000000	          0.00000000	          0.89131348	          0.00000000	          0.58806598	          0.80921006	         -0.30465513	          0.57696372	          0.78080988	         -0.23345356	          0.56402433	          0.80026686	         -0.38377589	          0.55795348	          0.40618286	         -0.21016861	          0.69532371	          0.43103805	         -0.36844233	          0.26038429	          0.18453343	         -0.21459274	          0.68046945	          0.06803212	         -0.35547251	          0.66257215	          0.86229229	         -0.30417639	          0.66862714	          0.84742504	         -0.18943667	          0.65651721	          0.87715954	         -0.41891611	          0.47180930	          0.92188776	         -0.25341716	          0.46461257	          0.92244393	         -0.30776495	          0.56329197	          0.40949574	         -0.15250991	          0.70823216	          0.43328196	         -0.42494309	          0.57735223	          0.40223008	         -0.27045962	          0.70217991	          0.44469154	         -0.31038734	          0.25140017	          0.19585031	         -0.17729376	          0.67322636	          0.06692352	         -0.39479563	          0.27515787	          0.17954075	         -0.24581818	          0.68981791	          0.07698356	         -0.32999060	          0.53172618	          1.35839808	         -0.29479393	          0.66162342	          1.30630350	         -0.25308257	          0.65310043	          1.30068004	         -0.35996780	          0.65404123	          1.29993820	         -0.30541429	          0.69781655	          1.23302925	         -0.30934885	          0.73608369	          0.53840941	         -0.23936747	          0.71284908	          0.56882089	         -0.51626951	          0.67365217	          0.59296864	         -0.18307257	          0.63470882	          0.59868401	         -0.46668753	          0.66087782	          0.50598413	         -0.17942189	          0.66875136	          0.51913500	         -0.45033443	          0.30834296	          0.24937046	         -0.10538495	          0.77615386	          0.19262455	         -0.33810490	          0.31845406	          0.25204560	         -0.14716668	          0.73784190	          0.19022389	         -0.35136110	          0.25476289	          0.07845108	         -0.19182715	          0.78965330	          0.04232838	         -0.37533933	
